<svg width="195" height="176" viewBox="0 0 195 176" fill="none" xmlns="http://www.w3.org/2000/svg">
<g clip-path="url(#clip0)">
<path d="M195 0H0V176H195V0Z" fill="black"/>
<path d="M97.5 220C178.272 220 243.75 160.902 243.75 88C243.75 15.0984 178.272 -44 97.5 -44C16.7284 -44 -48.75 15.0984 -48.75 88C-48.75 160.902 16.7284 220 97.5 220Z" fill="black"/>
<path d="M97.5 198C164.81 198 219.375 148.751 219.375 88C219.375 27.2487 164.81 -22 97.5 -22C30.1903 -22 -24.375 27.2487 -24.375 88C-24.375 148.751 30.1903 198 97.5 198Z" fill="#180D1C"/>
<path d="M97.5 176C151.348 176 195 136.601 195 88C195 39.3989 151.348 0 97.5 0C43.6522 0 0 39.3989 0 88C0 136.601 43.6522 176 97.5 176Z" fill="#261431"/>
<path d="M97.5 154C137.886 154 170.625 124.451 170.625 88C170.625 51.5492 137.886 22 97.5 22C57.1142 22 24.375 51.5492 24.375 88C24.375 124.451 57.1142 154 97.5 154Z" fill="#351947"/>
<path d="M97.5 132C124.424 132 146.25 112.301 146.25 88C146.25 63.6995 124.424 44 97.5 44C70.5761 44 48.75 63.6995 48.75 88C48.75 112.301 70.5761 132 97.5 132Z" fill="#451E5E"/>
<path d="M97.5 110C110.962 110 121.875 100.15 121.875 88C121.875 75.8497 110.962 66 97.5 66C84.0381 66 73.125 75.8497 73.125 88C73.125 100.15 84.0381 110 97.5 110Z" fill="#552277"/>
</g>
<defs>
<clipPath id="clip0">
<rect width="195" height="176" fill="white"/>
</clipPath>
</defs>
</svg>
