<svg width="1426" height="979" viewBox="0 0 1426 979" fill="none" xmlns="http://www.w3.org/2000/svg">
<g clip-path="url(#clip0)">
<path d="M1426 0H0V979H1426V0Z" fill="black"/>
<path d="M713 1223.75C1303.67 1223.75 1782.5 895.015 1782.5 489.5C1782.5 83.9849 1303.67 -244.75 713 -244.75C122.331 -244.75 -356.5 83.9849 -356.5 489.5C-356.5 895.015 122.331 1223.75 713 1223.75Z" fill="black"/>
<path d="M713 1101.38C1205.22 1101.38 1604.25 827.429 1604.25 489.5C1604.25 151.571 1205.22 -122.375 713 -122.375C220.776 -122.375 -178.25 151.571 -178.25 489.5C-178.25 827.429 220.776 1101.38 713 1101.38Z" fill="#180D1C"/>
<path d="M713 979C1106.78 979 1426 759.843 1426 489.5C1426 219.157 1106.78 0 713 0C319.221 0 0 219.157 0 489.5C0 759.843 319.221 979 713 979Z" fill="#261431"/>
<path d="M713 856.625C1008.33 856.625 1247.75 692.258 1247.75 489.5C1247.75 286.742 1008.33 122.375 713 122.375C417.666 122.375 178.25 286.742 178.25 489.5C178.25 692.258 417.666 856.625 713 856.625Z" fill="#351947"/>
<path d="M713 734.25C909.89 734.25 1069.5 624.672 1069.5 489.5C1069.5 354.328 909.89 244.75 713 244.75C516.11 244.75 356.5 354.328 356.5 489.5C356.5 624.672 516.11 734.25 713 734.25Z" fill="#451E5E"/>
<path d="M713 611.875C811.445 611.875 891.25 557.086 891.25 489.5C891.25 421.914 811.445 367.125 713 367.125C614.555 367.125 534.75 421.914 534.75 489.5C534.75 557.086 614.555 611.875 713 611.875Z" fill="#552277"/>
</g>
<defs>
<clipPath id="clip0">
<rect width="1426" height="979" fill="white"/>
</clipPath>
</defs>
</svg>
